<?xml version="1.0" encoding="utf-8"?>
<svg id="master-artboard" viewBox="0 0 1000 1000" version="1.1" xmlns="http://www.w3.org/2000/svg" x="0px" y="0px" style="enable-background:new 0 0 1400 980;" width="1000px" height="1000px"><rect id="ee-background" x="0" y="0" width="1000" height="1000" style="fill: white; fill-opacity: 0; pointer-events: none;"/><defs><style id="ee-google-fonts">@import url(https://fonts.googleapis.com/css?family=Fjalla+One:400|Roboto:100,100italic,300,300italic,400,400italic,500,500italic,700,700italic,900,900italic);</style></defs>











































<g transform="matrix(1, 0, 0, 1, -233.43637084960938, 6.309104919433594)">
		<path class="st13" d="M448.4,599.9" style="fill: rgb(223, 243, 251);"/>
	</g>





















































<g transform="matrix(0.8631572127342224, 0, 0, 0.8631572127342224, 304.4794006347656, 73.94306182861328)"><path style="fill:#DBDBDB;" d="M72,0h320c17.673,0,32,14.327,32,32v432l0,0H40l0,0V32C40,14.327,54.327,0,72,0z"/><path style="fill:#B9B9B9;" d="M72,0h320c17.673,0,32,14.327,32,32v64l0,0H40l0,0V32C40,14.327,54.327,0,72,0z"/><path style="fill:#DBDBDB;" d="M168,0h224c17.673,0,32,14.327,32,32v64l0,0H168l0,0V0L168,0z"/><path style="fill:#3B869E;" d="M104,24L104,24c13.255,0,24,10.745,24,24l0,0c0,13.255-10.745,24-24,24l0,0&#10;&#9;c-13.255,0-24-10.745-24-24l0,0C80,34.745,90.745,24,104,24z"/><path style="fill:#EBEBEB;" d="M40,96h384v368H40V96z"/><path d="M 360 264 A 128 128 0 0 1 232 392 A 128 128 0 0 1 104 264 A 128 128 0 0 1 232 136 A 128 128 0 0 1 360 264 Z" style="fill:#3B869E;"/><path d="M 320 264 A 88 88 0 0 1 232 352 A 88 88 0 0 1 144 264 A 88 88 0 0 1 232 176 A 88 88 0 0 1 320 264 Z" style="fill:#8ACED8;"/><g>
	<path style="fill:#6FBBC6;" d="M294.4,256c-20.8,0-20.8,16-41.6,16s-20.8-16-41.6-16s-20.8,16-41.56,16&#10;&#9;&#9;c-13.384,0-18.168-6.616-25.416-11.344c-0.04,1.12-0.168,2.216-0.168,3.344c-0.123,48.57,39.151,88.043,87.721,88.166&#10;&#9;&#9;c47.438,0.12,86.423-37.406,88.111-84.814C312.568,262.632,307.784,256,294.4,256z"/>
	<path style="fill:#6FBBC6;" d="M384,64h-32V32h31.752L384,64z"/>
	<path style="fill:#6FBBC6;" d="M312,64h-32V32h31.752L312,64z"/>
	<path style="fill:#6FBBC6;" d="M240,64h-32V32h31.752L240,64z"/>
</g><path style="fill:#B9B9B9;" d="M40,432h384v32H40V432z"/><g>
</g><g>
</g><g>
</g><g>
</g><g>
</g><g>
</g><g>
</g><g>
</g><g>
</g><g>
</g><g>
</g><g>
</g><g>
</g><g>
</g><g>
</g></g><g transform="matrix(0.8061884641647338, 0, 0, 0.8061884641647338, 10.207115173339842, 511.3085327148437)"><g><g><path d="m459.004 105.516h-101.226c-16.209 0-29.396-13.187-29.396-29.396s13.187-29.396 29.396-29.396h101.2c4.143 0 7.5-3.357 7.5-7.5s-3.357-7.5-7.5-7.5h-101.2c-24.479 0-44.396 19.916-44.396 44.396s19.916 44.396 44.396 44.396h101.226c20.951 0 37.996 17.045 37.996 37.996 0 16.98-13.814 30.795-30.795 30.795-4.143 0-7.5 3.357-7.5 7.5s3.357 7.5 7.5 7.5c25.251 0 45.795-20.544 45.795-45.795 0-29.221-23.774-52.996-52.996-52.996z" fill="#a8b3ba"/><path d="m397.24 239.725v35.67h-47.53v-35.67c0-2.15 1.74-3.89 3.89-3.89h39.75c2.15 0 3.89 1.74 3.89 3.89z" fill="#a8b3ba"/><path d="m397.24 239.725v35.67h-19.76v-35.67c0-2.15-1.75-3.89-3.9-3.89h19.77c2.15 0 3.89 1.74 3.89 3.89z" fill="#879299"/><path d="m450.21 374.705c-1.41 1.95-3.67 3.11-6.08 3.11h-385c-3.24 0-6.11-2.07-7.12-5.15l-10-30.23c-.76-2.28-.37-4.79 1.04-6.74s3.67-3.11 6.08-3.11h385c3.23 0 6.1 2.07 7.12 5.14l10 30.23c.75 2.29.37 4.8-1.04 6.75z" fill="#a8b3ba"/><path d="m450.21 374.705c-1.41 1.95-3.67 3.11-6.08 3.11h-30c2.41 0 4.67-1.16 6.08-3.11s1.79-4.46 1.04-6.75l-10-30.23c-1.02-3.07-3.89-5.14-7.12-5.14h30c3.23 0 6.1 2.07 7.12 5.14l10 30.23c.75 2.29.37 4.8-1.04 6.75z" fill="#879299"/><path d="m511.99 387.635v.06c0 8.27-6.71 14.97-14.98 14.97h-482.04c-8.27 0-14.97-6.7-14.97-14.97v-.06c0-8.27 6.7-14.97 14.97-14.97h482.04c8.27 0 14.98 6.7 14.98 14.97z" fill="#555760"/><path d="m511.99 387.635v.06c0 8.27-6.71 14.97-14.98 14.97h-29.99c8.27 0 14.97-6.7 14.97-14.97v-.06c0-8.27-6.7-14.97-14.97-14.97h29.99c8.27 0 14.98 6.7 14.98 14.97z" fill="#36383f"/><path d="m74.84 372.665v100.11c0 4.14 3.36 7.5 7.5 7.5h347.32c4.14 0 7.5-3.36 7.5-7.5v-100.11z" fill="#dae6ef"/><path d="m437.16 372.665v100.11c0 4.14-3.36 7.5-7.5 7.5h-30c4.14 0 7.5-3.36 7.5-7.5v-100.11z" fill="#c5d3dd"/><path d="m494.94 288.165-21.41-92.98c-6.25-29.02-31.33-49.59-61.01-50.04h-143.72c-60.2 0-115.61 20.19-160.22 58.4-7.46 6.39-14.53 13.22-21.19 20.45-10.47 11.35-19.92 23.68-28.21 36.77-12.64 19.94-22.59 41.63-29.4 64.32-1.32 4.38-2.51 8.79-3.59 13.23-.54 2.24-.03 4.6 1.39 6.41 1.43 1.8 3.6 2.86 5.9 2.86h421.3c4.14 0 7.5-3.36 7.5-7.5 0-23.64 8.53-36.93 27.66-43.1 3.7-1.2 5.88-5.03 5-8.82zm-191.74-101.31h98.44c11.75 0 21.98 8.03 24.78 19.44l13.24 54.1h-110.95c-14.09 0-25.51-11.42-25.51-25.51z" fill="#52deff"/><g fill="#55baff"><path d="m489.94 296.985c-19.13 6.17-27.66 19.46-27.66 43.1 0 4.14-3.36 7.5-7.5 7.5h-421.3c-2.3 0-4.47-1.06-5.9-2.86-1.42-1.81-1.93-4.17-1.39-6.41 1.08-4.44 2.27-8.85 3.59-13.23h411.09c3.11-20.27 12.94-35.01 29.34-44.04l-18.68-81.12c-6.5-33.02-30.18-54.49-49.32-54.78h10.31c29.68.45 54.76 21.02 61.01 50.04l21.41 92.98c.88 3.79-1.3 7.62-5 8.82z"/><path d="m165.52 227.595v12.25c0 11.55-9.37 20.92-20.92 20.92h-85.42c8.29-13.09 17.74-25.42 28.21-36.77h74.53c1.99 0 3.6 1.61 3.6 3.6z"/></g></g><g fill="#dae6ef"><path d="m124.85 90.045c0-4.143-3.357-7.5-7.5-7.5s-7.5 3.357-7.5 7.5c0 3.333-1.095 4.655-3.275 7.288-2.838 3.426-6.725 8.117-6.725 16.856s3.887 13.431 6.725 16.856c2.181 2.633 3.275 3.955 3.275 7.288s-1.095 4.654-3.275 7.287c-2.838 3.425-6.725 8.116-6.725 16.854 0 4.143 3.357 7.5 7.5 7.5s7.5-3.357 7.5-7.5c0-3.332 1.095-4.653 3.275-7.285 2.838-3.426 6.725-8.117 6.725-16.856s-3.887-13.431-6.725-16.856c-2.181-2.633-3.275-3.955-3.275-7.288s1.095-4.655 3.275-7.288c2.838-3.426 6.725-8.117 6.725-16.856z"/><path d="m167.803 84.189c0-3.333 1.095-4.655 3.275-7.288 2.838-3.426 6.725-8.117 6.725-16.856 0-4.143-3.357-7.5-7.5-7.5s-7.5 3.357-7.5 7.5c0 3.333-1.095 4.655-3.275 7.288-2.838 3.426-6.725 8.117-6.725 16.856s3.887 13.431 6.725 16.856c2.181 2.633 3.275 3.955 3.275 7.288s-1.095 4.654-3.275 7.287c-2.838 3.425-6.725 8.116-6.725 16.854 0 4.143 3.357 7.5 7.5 7.5s7.5-3.357 7.5-7.5c0-3.332 1.095-4.653 3.275-7.285 2.838-3.426 6.725-8.117 6.725-16.856s-3.887-13.431-6.725-16.856c-2.18-2.632-3.275-3.955-3.275-7.288z"/><path d="m71.897 129.669c0-4.143-3.357-7.5-7.5-7.5s-7.5 3.357-7.5 7.5c0 3.333-1.095 4.655-3.275 7.288-2.838 3.426-6.725 8.117-6.725 16.856s3.887 13.431 6.725 16.856c2.181 2.633 3.275 3.955 3.275 7.288s-1.095 4.654-3.275 7.287c-2.838 3.425-6.725 8.116-6.725 16.854 0 4.143 3.357 7.5 7.5 7.5s7.5-3.357 7.5-7.5c0-3.332 1.095-4.653 3.275-7.285 2.838-3.426 6.725-8.117 6.725-16.856s-3.887-13.431-6.725-16.856c-2.181-2.633-3.275-3.955-3.275-7.288s1.095-4.655 3.275-7.288c2.838-3.426 6.725-8.117 6.725-16.856z"/></g></g></g><g transform="matrix(0.8754844665527344, 0, 0, 0.8754844665527344, 546.709228515625, 500.47583007812506)"><path d="M 38 69.914001 H 474 V 84.914001 H 38 V 69.914001 Z" style="fill:#08375E;"/><path style="fill:#EF5A50;" d="M206.244,225.238c0,1.7-1.39,3.09-3.09,3.09H102.148c-1.699,0-3.09-1.391-3.09-3.09V68.832&#10;&#9;c0-1.7,1.391-3.091,3.09-3.091h101.006c1.7,0,3.09,1.391,3.09,3.091L206.244,225.238L206.244,225.238z"/><path style="opacity:0.1;fill:#231F20;enable-background:new    ;" d="M121.046,225.238V68.832c0-1.7,1.391-3.091,3.091-3.091&#10;&#9;h-21.988c-1.699,0-3.09,1.391-3.09,3.091v156.405c0,1.7,1.391,3.09,3.09,3.09h21.988&#10;&#9;C122.437,228.328,121.046,226.937,121.046,225.238z"/><path style="fill:#86D5B5;" d="M401.35,225.238c0,1.7-1.392,3.09-3.091,3.09h-140.75c-1.7,0-3.091-1.391-3.091-3.09V68.832&#10;&#9;c0-1.7,1.391-3.091,3.091-3.091h140.75c1.699,0,3.091,1.391,3.091,3.091V225.238z"/><path style="opacity:0.1;fill:#231F20;enable-background:new    ;" d="M276.989,225.238V68.832c0-1.7,1.39-3.091,3.091-3.091&#10;&#9;h-22.571c-1.7,0-3.091,1.391-3.091,3.091v156.405c0,1.7,1.391,3.09,3.091,3.09h22.571&#10;&#9;C278.379,228.328,276.989,226.937,276.989,225.238z"/><g>
	<path d="M 38 110.860001 H 474 V 125.860001 H 38 V 110.860001 Z" style="fill:#08375E;"/>
	<path d="M 38 155.419998 H 474 V 170.419998 H 38 V 155.419998 Z" style="fill:#08375E;"/>
</g><path style="fill:#FF9F3D;" d="M259.566,186.572c0,1.699-1.391,3.09-3.091,3.09H91.641c-1.7,0-3.09-1.391-3.09-3.09v-31.154&#10;&#9;c0-1.7,1.39-3.09,3.09-3.09h164.835c1.7,0,3.091,1.391,3.091,3.09v31.154H259.566z"/><path style="opacity:0.1;fill:#231F20;enable-background:new    ;" d="M105.588,186.572v-31.154c0-1.7,1.39-3.09,3.09-3.09H91.641&#10;&#9;c-1.7,0-3.09,1.391-3.09,3.09v31.154c0,1.699,1.39,3.09,3.09,3.09h17.037C106.978,189.663,105.588,188.272,105.588,186.572z"/><path style="fill:#FFBB4A;" d="M223.436,278.563c0,1.7-1.391,3.09-3.091,3.09h-92.574c-1.7,0-3.091-1.39-3.091-3.09V155.418&#10;&#9;c0-1.7,1.391-3.09,3.091-3.09h92.574c1.7,0,3.091,1.391,3.091,3.09V278.563z"/><path style="opacity:0.1;fill:#231F20;enable-background:new    ;" d="M141.65,278.563V155.418c0-1.7,1.39-3.09,3.09-3.09h-16.97&#10;&#9;c-1.7,0-3.091,1.391-3.091,3.09v123.145c0,1.7,1.391,3.09,3.091,3.09h16.97C143.04,281.654,141.65,280.263,141.65,278.563z"/><path style="fill:#FF9F3D;" d="M148.742,152.328c2.493,11.697,12.877,20.474,25.316,20.474s22.821-8.776,25.315-20.474H148.742z"/><path style="fill:#34A1D7;" d="M291.561,152.527c-1.7,0-3.091,1.391-3.091,3.09v104.62c0,1.699,1.391,3.09,3.091,3.09h49.903&#10;&#9;c1.7,0,3.091-1.391,3.091-3.09V204.5c0-1.7,1.39-3.09,3.091-3.09h18.613c1.7,0,3.09,1.391,3.09,3.09v55.738&#10;&#9;c0,1.699,1.391,3.09,3.091,3.09h49.904c1.699,0,3.091-1.391,3.091-3.09v-104.62c0-1.7-1.392-3.09-3.091-3.09H291.561V152.527z"/><g style="opacity:0.1;">
	<path style="fill:#231F20;" d="M305.449,260.238v-104.62c0-1.7,1.39-3.09,3.09-3.09h-16.978c-1.7,0-3.091,1.391-3.091,3.09v104.62&#10;&#9;&#9;c0,1.699,1.391,3.09,3.091,3.09h16.978C306.839,263.328,305.449,261.937,305.449,260.238z"/>
</g><path style="fill:#ABCCD3;" d="M41.25,428.933c0,2.833-2.318,5.151-5.151,5.151H19.905c-2.833,0-5.15-2.318-5.15-5.151V63.479&#10;&#9;c0-2.833,2.317-5.151,5.15-5.151h16.193c2.833,0,5.151,2.318,5.151,5.151L41.25,428.933L41.25,428.933z"/><path style="opacity:0.1;fill:#231F20;enable-background:new    ;" d="M27.3,428.933V63.479c0-2.833,2.317-5.151,5.151-5.151H19.905&#10;&#9;c-2.833,0-5.15,2.318-5.15,5.151v365.454c0,2.833,2.317,5.151,5.15,5.151h12.546C29.617,434.084,27.3,431.766,27.3,428.933z"/><path style="fill:#34A1D7;" d="M56.004,448.521c0,2.833-2.317,5.151-5.15,5.151H5.15c-2.832,0-5.15-2.318-5.15-5.151v-20.812&#10;&#9;c0-2.833,2.318-5.151,5.15-5.151h45.703c2.833,0,5.15,2.318,5.15,5.151L56.004,448.521L56.004,448.521z"/><path style="opacity:0.1;fill:#231F20;enable-background:new    ;" d="M16.624,448.521v-20.812c0-2.833,2.317-5.151,5.15-5.151H5.15&#10;&#9;c-2.832,0-5.15,2.318-5.15,5.151v20.812c0,2.833,2.318,5.151,5.15,5.151h16.624C18.941,453.672,16.624,451.354,16.624,448.521z"/><path style="fill:#ABCCD3;" d="M497.244,428.933c0,2.833-2.317,5.151-5.15,5.151H475.9c-2.833,0-5.151-2.318-5.151-5.151V63.479&#10;&#9;c0-2.833,2.318-5.151,5.151-5.151h16.194c2.833,0,5.15,2.318,5.15,5.151V428.933z"/><path style="fill:#34A1D7;" d="M512,448.521c0,2.833-2.318,5.151-5.15,5.151h-45.703c-2.834,0-5.151-2.318-5.151-5.151v-20.812&#10;&#9;c0-2.833,2.317-5.151,5.151-5.151h45.703c2.832,0,5.15,2.318,5.15,5.151V448.521z"/><path style="fill:#86D5B5;" d="M128.561,348.521c-6.977,0-12.653-5.675-12.653-12.651c0-2.908,1.007-5.736,2.839-7.984l8.128-14.076&#10;&#9;c0.348-0.603,0.991-0.973,1.687-0.973l0,0c0.694,0,1.338,0.372,1.685,0.974l8.126,14.076c1.832,2.252,2.839,5.08,2.839,7.983&#10;&#9;C141.21,342.846,135.535,348.521,128.561,348.521z"/><path style="fill:#B1E8FF;" d="M202.037,374.648c-6.977,0-12.652-5.675-12.652-12.651c0-2.908,1.007-5.736,2.839-7.983l8.128-14.078&#10;&#9;c0.347-0.602,0.989-0.973,1.686-0.973l0,0c0.694,0,1.338,0.371,1.686,0.974l8.125,14.077c1.832,2.252,2.84,5.08,2.84,7.983&#10;&#9;C214.688,368.973,209.012,374.648,202.037,374.648z"/><path style="fill:#86D5B5;" d="M295.964,333.494c-6.977,0-12.653-5.675-12.653-12.651c0-2.909,1.008-5.736,2.84-7.984l8.129-14.077&#10;&#9;c0.346-0.603,0.989-0.973,1.685-0.973l0,0c0.695,0,1.338,0.371,1.685,0.973l8.126,14.078c1.833,2.251,2.841,5.08,2.841,7.983&#10;&#9;C308.615,327.819,302.94,333.494,295.964,333.494z"/><path style="fill:#B1E8FF;" d="M391.119,359.988c-6.978,0-12.653-5.675-12.653-12.65c0-2.909,1.007-5.737,2.839-7.984l8.129-14.077&#10;&#9;c0.346-0.602,0.99-0.972,1.686-0.972l0,0c0.695,0,1.338,0.37,1.685,0.973l8.126,14.076c1.832,2.253,2.839,5.081,2.839,7.984&#10;&#9;C403.769,354.314,398.094,359.988,391.119,359.988z"/><g>
	<path style="fill:#86D5B5;" d="M257.03,453.672H114.865c-4.142,0-7.5-3.358-7.5-7.5s3.358-7.5,7.5-7.5H257.03&#10;&#9;&#9;c4.143,0,7.5,3.358,7.5,7.5S261.173,453.672,257.03,453.672z"/>
	<path style="fill:#86D5B5;" d="M389.924,453.672h-89.626c-4.143,0-7.5-3.358-7.5-7.5s3.357-7.5,7.5-7.5h89.626&#10;&#9;&#9;c4.143,0,7.5,3.358,7.5,7.5S394.066,453.672,389.924,453.672z"/>
</g><g>
</g><g>
</g><g>
</g><g>
</g><g>
</g><g>
</g><g>
</g><g>
</g><g>
</g><g>
</g><g>
</g><g>
</g><g>
</g><g>
</g><g>
</g></g></svg>