<?xml version="1.0" encoding="iso-8859-1"?>
<!-- Generator: Adobe Illustrator 19.0.0, SVG Export Plug-In . SVG Version: 6.00 Build 0)  -->
<svg version="1.1" id="Capa_1" xmlns="http://www.w3.org/2000/svg" xmlns:xlink="http://www.w3.org/1999/xlink" x="0px" y="0px"
	 viewBox="0 0 512 512" style="enable-background:new 0 0 512 512;" xml:space="preserve">
<path style="fill:#91C84B;" d="M132.129,388.127c-20.549,15.412-44.293,21.236-59.305,23.437c-4.475,0.656-5.424,6.758-1.356,8.736
	c50.434,24.528,104.541,21.589,137.336,16.172c16.085-2.657,30.681,9.674,30.681,25.978v-74.323H132.129z"/>
<path style="fill:#A0D755;" d="M379.871,388.127c20.549,15.412,44.293,21.236,59.305,23.437c4.475,0.656,5.424,6.758,1.356,8.736
	c-50.434,24.528-104.541,21.589-137.336,16.172c-16.085-2.657-30.681,9.674-30.681,25.978v-74.323H379.871z"/>
<circle style="fill:#E4EAF8;" cx="346.84" cy="239.478" r="165.16"/>
<g>
	<path style="fill:#D5DCED;" d="M346.839,74.321c22.245,0,43.431,4.462,62.8,12.435c25.26,30.94,40.425,70.444,40.425,113.501
		c0,99.198-80.415,179.613-179.613,179.613c-3.662,0-7.29-0.144-10.898-0.36c-46.705-29.177-77.877-80.9-77.877-140.027
		C181.677,148.266,255.622,74.321,346.839,74.321z"/>
	<circle style="fill:#D5DCED;" cx="165.16" cy="239.478" r="165.16"/>
</g>
<path style="fill:#C7CFE2;" d="M165.161,74.321c-22.245,0-43.431,4.462-62.8,12.435c-25.26,30.94-40.425,70.444-40.425,113.501
	c0,99.198,80.415,179.613,179.613,179.613c3.662,0,7.29-0.144,10.898-0.36c46.705-29.177,77.876-80.9,77.876-140.027
	C330.323,148.266,256.378,74.321,165.161,74.321z"/>
<circle style="fill:#E4EAF8;" cx="256" cy="181.678" r="165.16"/>
<path style="fill:#D5DCED;" d="M338.581,297.288c-91.216,0-165.161-73.946-165.161-165.161c0-42.585,16.255-81.278,42.722-110.568
	c-71.924,17.859-125.303,82.67-125.303,160.116c0,91.216,73.945,165.161,165.161,165.161c48.631,0,92.215-21.146,122.44-54.594
	C365.651,295.418,352.35,297.288,338.581,297.288z"/>
<path style="fill:#B4E66E;" d="M445.663,245.433c0.32-5.141-5.781-8.054-9.608-4.605c-15.287,13.777-38.071,28.073-97.427,39.944
	c-44.28,8.856-64.795,36.694-74.316,60.621c-1.329,3.34-4.669,5.444-8.264,5.444l0,0c-3.595,0-6.935-2.103-8.264-5.444
	c-9.522-23.927-30.037-51.765-74.316-60.621c-59.356-11.871-82.139-26.167-97.426-39.944c-3.827-3.449-9.928-0.536-9.608,4.605
	c2.466,39.606,20.574,149.404,144.878,165.664c16.242,2.125,28.221,16.287,28.221,32.667v43.459c0,4.561,3.697,8.258,8.258,8.258
	h16.516c4.561,0,8.258-3.697,8.258-8.258l0.001-43.459c0-16.38,11.979-30.543,28.221-32.667
	C425.089,394.837,443.197,285.039,445.663,245.433z"/>
<path style="fill:#A0D755;" d="M338.581,330.321c57.883-28.942,96.74-64.219,105.478-89.176c-2.01-2.067-5.483-2.588-8.003-0.317
	c-15.287,13.777-38.072,28.073-97.427,39.945c-44.28,8.856-64.794,36.694-74.317,60.621c-1.329,3.34-4.669,5.444-8.264,5.444
	s-6.935-2.103-8.264-5.444c-9.522-23.927-30.037-51.765-74.317-60.621c-59.355-11.871-82.139-26.167-97.426-39.944
	c-3.827-3.449-9.928-0.536-9.608,4.605c2.466,39.606,20.575,149.404,144.878,165.664c16.241,2.124,28.221,16.287,28.221,32.667
	v43.459c0,4.56,3.697,8.258,8.258,8.258H256c0,0,0-33.032,0-66.065C256,379.869,282.329,358.447,338.581,330.321z"/>
<path style="fill:#91C84B;" d="M222.968,379.869c-23.799-15.866-116.153-8.954-152.671-140.156c-2.259,0.794-4.039,2.895-3.863,5.72
	c2.466,39.606,20.575,149.404,144.878,165.664c16.241,2.124,28.221,16.287,28.221,32.667
	C239.532,421.159,238.332,390.112,222.968,379.869z"/>
<g>
</g>
<g>
</g>
<g>
</g>
<g>
</g>
<g>
</g>
<g>
</g>
<g>
</g>
<g>
</g>
<g>
</g>
<g>
</g>
<g>
</g>
<g>
</g>
<g>
</g>
<g>
</g>
<g>
</g>
</svg>
