<?xml version="1.0" encoding="iso-8859-1"?>
<!-- Generator: Adobe Illustrator 19.0.0, SVG Export Plug-In . SVG Version: 6.00 Build 0)  -->
<svg version="1.1" id="Capa_1" xmlns="http://www.w3.org/2000/svg" xmlns:xlink="http://www.w3.org/1999/xlink" x="0px" y="0px"
	 viewBox="0 0 512 512" style="enable-background:new 0 0 512 512;" xml:space="preserve">
<path style="fill:#7DD49B;" d="M434.951,300.096c-25.053,48.653-60.567,83.117-76.447,97.072c-3.053,2.683-7.813,0.232-7.402-3.812
	c2.135-21.032,9.564-69.959,34.617-118.612s60.566-83.117,76.447-97.072c3.053-2.683,7.812-0.232,7.402,3.812
	C467.433,202.516,460.004,251.443,434.951,300.096z"/>
<path style="opacity:0.2;enable-background:new    ;" d="M434.951,300.096c-25.053,48.653-60.567,83.117-76.447,97.072
	c-3.053,2.683-7.813,0.232-7.402-3.812c2.135-21.032,9.564-69.959,34.617-118.612s60.566-83.117,76.447-97.072
	c3.053-2.683,7.812-0.232,7.402,3.812C467.433,202.516,460.004,251.443,434.951,300.096z"/>
<path style="fill:#7DD49B;" d="M364.977,512h-89.575c-7.237,0-12.992-6.074-12.602-13.301l2.013-37.272
	c0.946-17.512,0.946-35.063,0-52.575l-2.731-50.573h116.215l-2.731,50.573c-0.946,17.512-0.946,35.063,0,52.575l2.013,37.272
	C377.969,505.926,372.214,512,364.977,512z"/>
<path style="opacity:0.1;enable-background:new    ;" d="M364.977,512h-89.575c-7.237,0-12.992-6.074-12.602-13.301l2.013-37.272
	c0.946-17.512,0.946-35.063,0-52.575l-2.731-50.573h116.215l-2.731,50.573c-0.946,17.512-0.946,35.063,0,52.575l2.013,37.272
	C377.969,505.926,372.214,512,364.977,512z"/>
<path style="fill:#7DD49B;" d="M378.297,358.28H262.082l2.731-50.573c0.946-17.512,0.946-35.063,0-52.575L262.8,217.86
	c-0.39-7.227,5.364-13.3,12.602-13.3h89.575c7.237,0,12.992,6.074,12.602,13.3l-2.013,37.272c-0.946,17.512-0.946,35.063,0,52.575
	L378.297,358.28z"/>
<path style="fill:#F3CE72;" d="M375.115,347.71H265.264c-3.355,0-6.075,2.72-6.075,6.075v8.989c0,3.355,2.72,6.075,6.075,6.075
	h109.851c3.355,0,6.075-2.72,6.075-6.075v-8.989C381.191,350.43,378.47,347.71,375.115,347.71z"/>
<path style="opacity:0.05;enable-background:new    ;" d="M311.694,330.277l-2.592-47.99c-0.946-17.512-0.946-35.063,0-52.575
	l1.358-25.153h-35.058c-7.237,0-12.992,6.074-12.602,13.301l2.013,37.272c0.946,17.512,0.946,35.063,0,52.575l-2.194,40.632
	c-2.024,0.986-3.431,3.043-3.431,5.446v8.989c0,2.403,1.407,4.46,3.431,5.446l2.194,40.632c0.946,17.512,0.946,35.063,0,52.575
	l-2.013,37.272c-0.39,7.227,5.364,13.301,12.602,13.301h23.665c7.185,0,12.898-6.03,12.51-13.204l-2.476-45.842
	c-0.946-17.512-0.946-35.063,0-52.575l2.592-47.99c2.253-1.092,3.81-3.394,3.81-6.066v-9.98
	C315.503,333.672,313.946,331.37,311.694,330.277z"/>
<g>
	<path style="fill:#7DD49B;" d="M274.767,512H172.188c-7.185,0-12.898-6.03-12.51-13.204l2.476-45.842
		c0.946-17.512,0.946-35.063,0-52.575l-3.189-59.046h129.026l-3.189,59.046c-0.946,17.512-0.946,35.063,0,52.575l2.476,45.842
		C287.665,505.97,281.952,512,274.767,512z"/>
	<path style="fill:#7DD49B;" d="M287.991,341.333H158.964l3.189-59.046c0.946-17.512,0.946-35.063,0-52.575l-3.189-59.046H287.99
		l-3.189,59.046c-0.946,17.512-0.946,35.063,0,52.575L287.991,341.333z"/>
</g>
<path style="opacity:0.1;enable-background:new    ;" d="M287.991,341.333H158.964l3.189-59.046c0.946-17.512,0.946-35.063,0-52.575
	l-3.189-59.046H287.99l-3.189,59.046c-0.946,17.512-0.946,35.063,0,52.575L287.991,341.333z"/>
<path style="fill:#7DD49B;" d="M287.991,170.667H158.964l3.189-59.046c0.946-17.512,0.946-35.063,0-52.575l-2.476-45.842
	C159.29,6.03,165.003,0,172.188,0h102.579c7.185,0,12.898,6.03,12.51,13.204l-2.476,45.842c-0.946,17.512-0.946,35.063,0,52.575
	L287.991,170.667z"/>
<g>
	<path style="fill:#F3CE72;" d="M284.458,158.931H162.497c-3.725,0-6.745,3.02-6.745,6.745v9.98c0,3.725,3.02,6.745,6.745,6.745
		h121.961c3.725,0,6.745-3.02,6.745-6.745v-9.98C291.203,161.951,288.183,158.931,284.458,158.931z"/>
	<path style="fill:#F3CE72;" d="M284.458,329.598H162.497c-3.725,0-6.745,3.02-6.745,6.745v9.98c0,3.725,3.02,6.745,6.745,6.745
		h121.961c3.725,0,6.745-3.02,6.745-6.745v-9.98C291.203,332.618,288.183,329.598,284.458,329.598z"/>
</g>
<path style="opacity:0.08;enable-background:new    ;" d="M204.375,498.796l2.476-45.841c0.946-17.513,0.946-35.064,0-52.577
	l-2.592-47.989c-2.253-1.092-3.81-3.394-3.81-6.066v-9.98c0-2.672,1.557-4.973,3.81-6.066l2.592-47.989
	c0.946-17.513,0.946-35.064,0-52.577l-2.592-47.989c-2.253-1.092-3.81-3.394-3.81-6.066v-9.98c0-2.672,1.557-4.974,3.81-6.066
	l2.592-47.989c0.946-17.513,0.946-35.064,0-52.577l-2.476-45.84C203.988,6.03,209.701,0,216.885,0h-44.698
	c-7.185,0-12.898,6.03-12.51,13.204l2.476,45.841c0.946,17.513,0.946,35.063,0,52.576l-2.592,47.99
	c-2.253,1.092-3.81,3.394-3.81,6.066v9.98c0,2.672,1.557,4.974,3.81,6.066l2.592,47.99c0.946,17.512,0.946,35.063,0,52.575
	l-2.592,47.99c-2.253,1.092-3.81,3.394-3.81,6.066v9.98c0,2.672,1.557,4.974,3.81,6.066l2.592,47.99
	c0.946,17.513,0.946,35.063,0,52.576l-2.476,45.841C159.29,505.97,165.003,512,172.188,512h44.698
	C209.701,512,203.988,505.97,204.375,498.796z"/>
<path style="fill:#7DD49B;" d="M126.849,206.234c25.348,48.5,33.073,97.38,35.336,118.4c0.435,4.041-4.309,6.521-7.379,3.857
	c-15.965-13.858-51.687-48.106-77.035-96.606s-33.073-97.381-35.336-118.4c-0.435-4.041,4.309-6.521,7.379-3.856
	C65.779,123.486,101.501,157.734,126.849,206.234z"/>
<path style="opacity:0.2;enable-background:new    ;" d="M126.849,206.234c25.348,48.5,33.073,97.38,35.336,118.4
	c0.435,4.041-4.309,6.521-7.379,3.857c-15.965-13.858-51.687-48.106-77.035-96.606s-33.073-97.381-35.336-118.4
	c-0.435-4.041,4.309-6.521,7.379-3.856C65.779,123.486,101.501,157.734,126.849,206.234z"/>
<path style="opacity:0.05;enable-background:new    ;" d="M162.185,324.634c-2.263-21.019-9.988-69.899-35.336-118.4
	c-5.694-10.894-11.913-21.062-18.312-30.449c-0.225,18.85,0.982,39.911,4.875,61.763c4.884,27.416,13.302,52.209,21.971,72.583
	c7.754,7.921,14.522,14.105,19.423,18.359C157.876,331.155,162.62,328.675,162.185,324.634z"/>
<path style="fill:#7DD49B;" d="M177.808,208.159c3.947,54.582-8.424,102.498-14.715,122.681c-1.21,3.88-6.549,4.266-8.304,0.601
	c-9.13-19.068-28.266-64.705-32.214-119.287c-3.947-54.582,8.424-102.498,14.715-122.681c1.21-3.88,6.549-4.266,8.304-0.601
	C154.724,107.94,173.861,153.577,177.808,208.159z"/>
<g>
</g>
<g>
</g>
<g>
</g>
<g>
</g>
<g>
</g>
<g>
</g>
<g>
</g>
<g>
</g>
<g>
</g>
<g>
</g>
<g>
</g>
<g>
</g>
<g>
</g>
<g>
</g>
<g>
</g>
</svg>
