<svg id="Capa_1" enable-background="new 0 0 512 512" height="512" viewBox="0 0 512 512" width="512" xmlns="http://www.w3.org/2000/svg"><g><path d="m451 512h-105v-30h105c8.276 0 15-7.724 15-16s-6.724-15-15-15h-210v-30h210c24.814 0 45 20.186 45 45s-20.186 46-45 46z" fill="#e30a6c"/><path d="m465.533 235.252-15.311-15.487 14.691-15.315c-.69-7.266-1.763-14.416-3.127-21.464l-19.812-17.536 11.29-13.522c-3.708-10.626-8.069-20.936-13.259-30.767l-23.436-13.251 4.863-15.921c-7.54-10.133-15.831-19.64-24.933-28.359l-33.142.372 2.151-25.358c-30.015-19.987-65.085-33.947-102.905-37.555l-15.32 14.705-6.283-6.016-9.699-9.289c-10.605.452-21.037 2.531-31.212 4.404l-14.374 18.774-17.463-10.415c-10.734 3.671-21.121 8.064-31.055 13.244l-17.162 25.842-13.132-6.705c-10.6 7.894-20.48 16.648-29.528 26.25l-.71 35.107-25.102-2.073c-1.789 2.792-3.506 5.638-5.173 8.513l-8.535 37.57-16.915 28.215c-3.195 15.1-4.94 30.734-4.94 46.785 0 59.18 23.026 112.857 60.381 153.025l14.619-1.86 15.317 28.766c10.111 7.581 20.815 14.365 32.142 20.182l13.297-9.426 19.233 23.064c10.345 3.387 21.041 5.931 31.987 7.797l13.826-13.649 18.647 16.822c1.862.046 3.677.28 5.55.28 44.244 0 85.378-12.953 120.172-35.008l2.855-13.868 31.08-12.488c9.349-8.807 17.889-18.402 25.624-28.685l-4.171-17.036 23.864-13.947c5.27-10.087 9.734-20.638 13.445-31.551l-10.756-16.24 18.997-15.298c1.897-10.309 2.986-20.879 3.424-31.628z" fill="#ff8fb8"/><path d="m364.027 402.124 31.08-12.488c9.349-8.807 17.889-18.402 25.624-28.685l-4.171-17.036 23.864-13.947c5.27-10.087 9.734-20.638 13.445-31.551l-10.756-16.24 18.997-15.298c1.895-10.307 2.985-20.878 3.422-31.626l-15.311-15.487 14.691-15.315c-.69-7.266-1.763-14.416-3.127-21.464l-19.812-17.536 11.29-13.522c-3.708-10.626-8.069-20.936-13.259-30.767l-23.436-13.251 4.863-15.921c-7.54-10.133-15.831-19.64-24.933-28.359l-33.142.372 2.151-25.358c-30.014-19.988-65.084-33.948-102.904-37.556l-15.32 14.705-6.283-6.016v441.222c44.244 0 85.378-12.953 120.172-35.008z" fill="#ff5f96"/><g fill="#ff5f96"><path d="m241 125.446c44.718-32.78 97.762-54.86 155.499-61.816-9.587-9.183-19.9-17.602-30.991-24.987-37.229 7.421-73.083 20.279-106.13 38.829-2.008-10.343-3.378-20.819-3.378-31.472 0-15.271 2.712-30.828 6.603-44.911-7.116-.677-14.31-1.089-21.603-1.089-3.274 0-6.458.35-9.699.489-3.344 14.341-5.301 30.196-5.301 45.511 0 16.406 2.574 32.496 6.606 48.235-8.956 6.127-17.661 12.664-26.085 19.634-6.947-21.849-10.521-44.582-10.521-67.869 0-13.98 1.609-27.665 4.089-41.107-10.92 2.009-21.528 4.834-31.837 8.359-1.38 10.784-2.252 21.688-2.252 32.748 0 30.873 5.748 60.851 16.507 89.431-15.304 15.183-19.706 21.357-22.242 24.373-18.387-42.063-26.017-87.358-23.068-133.308-10.655 5.555-20.726 12.01-30.295 19.136 0 48.871 10.543 96.83 32.783 141.165-6.603 9.516-12.834 19.206-18.42 29.178-25.365-44.495-40.026-93.464-43.89-144.093-9.589 10.177-18.237 21.207-25.812 33.034 8.007 50.532 25.734 99.069 53.979 143.022-5.947 13.68-11.111 27.631-15.264 41.887-30.49-53.937-45.292-114.296-43.888-176.396-11.702 20.184-20.471 42.259-25.45 65.786 8.498 53.983 28.449 105.639 60.002 152.016-2.6 15.731-4.05 31.699-4.561 47.794 9.153 9.844 19.164 18.829 29.936 26.906-5.166-115.569 49.295-217.892 134.683-280.485z"/><path d="m241 204.698c50.143-52.326 120.921-84.587 199.005-83.536-5.413-10.254-11.7-19.933-18.572-29.172-68.537 3.348-131.293 29.742-180.433 71.683-64.103 54.713-105 135.924-105 227.327 0 11.801 1.089 23.485 2.459 35.112 10.411 5.345 21.255 9.946 32.531 13.638-2.95-16.036-4.99-32.265-4.99-48.75 0-72.671 28.729-138.016 75-186.302z"/><path d="m421 241c15.249 0 30.055-2.324 44.533-5.748.126-3.092.467-6.128.467-9.252 0-7.275-.412-14.451-1.088-21.55-14.115 4.129-28.78 6.55-43.912 6.55-22.776 0-44.987-4.889-65.594-13.863 24.835-10.364 52.046-16.137 80.594-16.137 8.705 0 17.263.921 25.785 1.987-2.067-10.666-5.006-20.989-8.522-31.058-5.731-.446-11.455-.929-17.263-.929-80.343 0-151.415 39.824-195 100.622-28.204 39.342-45 87.387-45 139.378 0 19.167 2.487 38.123 6.976 56.547 10.598 1.809 21.425 2.904 32.474 3.173-5.775-19.329-9.45-39.318-9.45-59.72 0-8.148.579-16.154 1.487-24.062 4.406 2.668 9.022 4.838 13.513 7.31 37.672 20.728 78.122 34.944 120.172 41.744 12.16-7.709 23.505-16.529 33.935-26.356-54.582-4.173-107.056-21.359-154.107-50.338-2.371-1.459-4.9-2.56-7.242-4.081 1.945-7.039 4.631-13.735 7.242-20.464 1.075-2.77 1.782-5.718 2.983-8.428 52.628 35.894 113.6 54.597 176.748 54.626 7.346-9.769 13.991-20.07 19.693-30.983-65.112 4.129-128.542-13.141-182.043-50.49 5.316-8.434 11.118-16.512 17.543-24.084 42.753 29.764 92.563 45.606 145.076 45.606 11.107 0 22.017-1.185 32.869-2.584 3.475-10.214 6.255-20.724 8.242-31.538-13.471 2.492-27.149 4.122-41.111 4.122-44.496 0-86.516-13.44-123.201-37.716 7.978-7 16.456-13.403 25.43-19.146 29.714 17.32 63.175 26.862 97.771 26.862z"/></g><g fill="#e30a6c"><path d="m243.983 306.325c52.628 35.894 113.6 54.597 176.748 54.626 7.346-9.769 13.991-20.07 19.693-30.983-65.112 4.129-128.542-13.141-182.043-50.49 5.316-8.434 11.118-16.512 17.543-24.084 42.753 29.764 92.563 45.606 145.076 45.606 11.107 0 22.017-1.185 32.869-2.584 3.475-10.214 6.255-20.724 8.242-31.538-13.471 2.492-27.149 4.122-41.111 4.122-44.496 0-86.516-13.44-123.201-37.716 7.978-7 16.456-13.403 25.43-19.146 29.714 17.32 63.175 26.862 97.771 26.862 15.249 0 30.055-2.324 44.533-5.748.126-3.092.467-6.128.467-9.252 0-7.275-.412-14.451-1.088-21.55-14.115 4.129-28.78 6.55-43.912 6.55-22.776 0-44.987-4.889-65.594-13.863 24.835-10.364 52.046-16.137 80.594-16.137 8.705 0 17.263.921 25.785 1.987-2.067-10.666-5.006-20.989-8.522-31.058-5.731-.446-11.455-.929-17.263-.929-80.343 0-151.415 39.824-195 100.622v63.131c1.075-2.77 1.782-5.718 2.983-8.428z"/><path d="m395.107 389.636c-54.582-4.173-107.056-21.359-154.107-50.338v34.949c37.672 20.728 78.122 34.944 120.172 41.744 12.16-7.708 23.505-16.528 33.935-26.355z"/><path d="m365.508 38.643c-37.229 7.421-73.083 20.279-106.13 38.829-2.008-10.343-3.378-20.819-3.378-31.472 0-15.271 2.712-30.828 6.603-44.911-7.116-.677-14.31-1.089-21.603-1.089v125.446c44.718-32.78 97.762-54.86 155.499-61.816-9.588-9.183-19.9-17.603-30.991-24.987z"/><path d="m440.005 121.161c-5.413-10.254-11.7-19.933-18.572-29.172-68.537 3.349-131.293 29.743-180.433 71.684v41.025c50.143-52.327 120.921-84.588 199.005-83.537z"/></g></g></svg>