<?xml version="1.0" encoding="iso-8859-1"?>
<!-- Generator: Adobe Illustrator 19.0.0, SVG Export Plug-In . SVG Version: 6.00 Build 0)  -->
<svg version="1.1" id="Capa_1" xmlns="http://www.w3.org/2000/svg" xmlns:xlink="http://www.w3.org/1999/xlink" x="0px" y="0px"
	 viewBox="0 0 512 512" style="enable-background:new 0 0 512 512;" xml:space="preserve">
<path style="fill:#D6D4CC;" d="M272.223,512h-32.446H112.858c-4.447,0-6.804-5.256-3.847-8.577l35.688-40.072h95.077h32.446h95.077
	l35.688,40.072c2.957,3.321,0.6,8.577-3.847,8.577H272.223z"/>
<path style="fill:#BFBDB2;" d="M179.726,463.355L136.396,512h-23.54c-4.447,0-6.804-5.256-3.846-8.577l35.69-40.068H179.726z"/>
<path style="fill:#D6D4CC;" d="M272.225,0h-32.446h-126.92c-4.447,0-6.804,5.256-3.847,8.577L144.7,48.649h95.077h32.446H367.3
	l35.69-40.072C405.947,5.256,403.59,0,399.143,0H272.225z"/>
<path style="fill:#BFBDB2;" d="M179.727,48.645L136.398,0h-23.54c-4.447,0-6.804,5.256-3.846,8.577l35.69,40.068H179.727z"/>
<rect x="144.7" y="48.649" style="fill:#F35856;" width="222.6" height="414.7"/>
<rect x="144.7" y="48.649" style="fill:#E53838;" width="34.04" height="414.7"/>
<g>
	<polygon style="fill:#D12A2A;" points="235.242,48.645 144.699,119.254 144.699,99.66 210.116,48.645 	"/>
	<path style="fill:#D12A2A;" d="M366.961,150.283l0.34-0.361v-20.511l-79.314-74.317l7.757-6.449h-24.168L144.699,154.156v20.099
		l17.256-14.35l110.24,37.056l39.322,38.22L144.7,187.535v16.071l190.233,54.342l31.925,31.029l0.443-0.453v-20.676l-154.537-150.2
		l28.866-24.003L366.786,218.45l0.515-0.515v-20.789L253.569,83.723l22.448-18.667L366.961,150.283z M246.553,172.04l-70.64-23.746
		l24.899-20.707L246.553,172.04z"/>
	<polygon style="fill:#D12A2A;" points="304.481,300.432 283.455,363.613 367.301,323.508 367.301,340.64 276.676,383.979 
		262.964,425.207 367.301,376.232 367.301,393.303 256.227,445.44 250.262,463.355 233.985,463.355 289.461,296.651 
		254.177,287.781 187.091,463.355 170.547,463.355 239.085,283.99 196.559,273.297 144.699,403.543 144.699,361.758 
		181.436,269.495 144.699,260.265 144.699,244.328 367.301,300.287 367.301,316.224 	"/>
</g>
<g>
</g>
<g>
</g>
<g>
</g>
<g>
</g>
<g>
</g>
<g>
</g>
<g>
</g>
<g>
</g>
<g>
</g>
<g>
</g>
<g>
</g>
<g>
</g>
<g>
</g>
<g>
</g>
<g>
</g>
</svg>
