<svg id="Capa_1" enable-background="new 0 0 497 497" height="512" viewBox="0 0 497 497" width="512" xmlns="http://www.w3.org/2000/svg"><g><path d="m452 0h-30l-60 203.5 60 203.5h30v-284.043c26.9-15.562 45-44.645 45-77.957 0-24.853-20.147-45-45-45z" fill="#a41910"/><path d="m467 45c0-24.853-20.147-45-45-45h-332v407h332v-317c24.853 0 45-20.147 45-45z" fill="#db2116"/><path d="m150 90-60 407c49.706 0 90-40.294 90-90v-317z" fill="#ff3a2f"/><path d="m0 90v317c0 49.706 40.294 90 90 90 33.137 0 60-40.294 60-90v-317z" fill="#ff5a35"/><circle cx="90" cy="90" fill="#ff7a3c" r="90"/><circle cx="90" cy="90" fill="#ff3a2f" r="60"/><circle cx="90" cy="90" fill="#db2116" r="30"/><path d="m467 87.429-45 409.571h30c24.853 0 45-20.147 45-45v-407c0 19.592-12.524 36.251-30 42.429z" fill="#db2116"/><path d="m452 90h-137c0 203.5-105 203.5-105 407h212c24.853 0 45-20.147 45-45v-364.571c-4.693 1.66-9.739 2.571-15 2.571z" fill="#ff3a2f"/><g fill="#ff9a42"><circle cx="332" cy="293.5" r="7.5"/><circle cx="362" cy="263.5" r="7.5"/><circle cx="362" cy="323.5" r="7.5"/><circle cx="392" cy="293.5" r="7.5"/><circle cx="407" cy="437" r="7.5"/><circle cx="437" cy="407" r="7.5"/><circle cx="437" cy="467" r="7.5"/></g><circle cx="467" cy="437" fill="#ff7a3c" r="7.5"/><circle cx="407" cy="150" fill="#ff9a42" r="7.5"/><circle cx="437" cy="120" fill="#ff9a42" r="7.5"/><circle cx="437" cy="180" fill="#ff9a42" r="7.5"/><circle cx="467" cy="150" fill="#ff7a3c" r="7.5"/><circle cx="257" cy="437" fill="#ff9a42" r="7.5"/><circle cx="287" cy="407" fill="#ff9a42" r="7.5"/><circle cx="287" cy="467" fill="#ff9a42" r="7.5"/><circle cx="317" cy="437" fill="#ff9a42" r="7.5"/></g></svg>