<svg height="512" viewBox="0 0 58 58" width="512" xmlns="http://www.w3.org/2000/svg"><g id="031---Folded-Suit" fill="none"><path id="Shape" d="m58 19.91v32.09c0 3.3137085-2.6862915 6-6 6h-46c-3.3137085 0-6-2.6862915-6-6v-32.09c.01136637-4.7888173 2.86887206-9.112416 7.27-11l6.73-2.91h30l6.73 2.88c4.4111303 1.8918898 7.2706129 6.2302794 7.27 11.03z" fill="#35495e"/><path id="Shape" d="m58 19.91v30.09c0 3.3137085-2.6862915 6-6 6h-46c-3.3137085 0-6-2.6862915-6-6v-30.09c.01136637-4.7888173 2.86887206-9.112416 7.27-11l6.73-2.91h30l6.73 2.88c4.4111303 1.8918898 7.2706129 6.2302794 7.27 11.03z" fill="#3f5c6c"/><path id="Shape" d="m44 6-15 38-15-38 9 11 6-6 6 6z" fill="#d1d4d1"/><path id="Shape" d="m43 26 2 6-16 12 15-38 5 18z" fill="#547580"/><path id="Shape" d="m13 32 2-6-6-2 5-18 15 38z" fill="#547580"/><path id="Shape" d="m30 44v14h-2v-14c0-.5522847.4477153-1 1-1s1 .4477153 1 1z" fill="#35495e"/><path id="Shape" d="m31 8 .67 8.72c.0816119.5769967-.0924904 1.1608928-.476771 1.5989728-.3842807.4380799-.9405175.6867703-1.523229.6810272h-1.36c-.5827115.0057431-1.1389483-.2429473-1.523229-.6810272-.3842806-.43808-.5583829-1.0219761-.476771-1.5989728l.69-8.72z" fill="#e64c3c"/><circle id="Oval" cx="35" cy="50" fill="#547580" r="2"/><path id="Shape" d="m33.61 32.32c0 .1 0 0-4.61 11.68-4.65-11.76-4.61-11.58-4.61-11.68l3.17-13.46h2.88z" fill="#c03a2b"/><g fill="#ecf0f1"><path id="Shape" d="m39 0h-20l-5 6 9 11 6-6 6 6 9-11z"/><path id="Shape" d="m29 11-6 6-9-11 5-6z"/><path id="Shape" d="m44 6-9 11-6-6 10-11z"/></g><path id="Shape" d="m39 0-10 11-10-11z" fill="#d1d4d1"/></g></svg>