<svg height="512" viewBox="0 0 48 58" width="512" xmlns="http://www.w3.org/2000/svg"><g id="051---Dress" fill="none"><path id="Shape" d="m48 47s-1 5-6 4c-1.3940234 2.4594503-4.2576233 3.6867074-7 3 0 0-2 4-7 2-.8592296 1.3569108-2.3989336 2.1267628-4 2-1.6010664.1267628-3.1407704-.6430892-4-2-5 2-7-2-7-2-2.7423767.6867074-5.60597658-.5405497-7-3-5 1-6-4-6-4 3.58033212-8.8741002 8.5156869-17.1390484 14.63-24.5h18.74c6.1124654 7.3622587 11.0476408 15.6269065 14.63 24.5z" fill="#ff5364"/><g fill="#df4d60"><path id="Shape" d="m24 36c-.5522847 0-1-.4477153-1-1v-10c0-.5522847.4477153-1 1-1s1 .4477153 1 1v10c0 .5522847-.4477153 1-1 1z"/><path id="Shape" d="m17 33c-.3465932-.0010489-.6679286-.1814922-.8492369-.4768822-.1813084-.2953899-.1967323-.6635996-.0407631-.9731178l3.59-7.19c.2700473-.4487927.8406385-.6131719 1.3080622-.3768341s.6732882.7933069.4719378 1.2768341l-3.59 7.19c-.1694502.3362797-.5134418.5488587-.89.55z"/><path id="Shape" d="m31 33c-.3765582-.0011413-.7205498-.2137203-.89-.55l-3.59-7.19c-.2013504-.4835272.0045141-1.0404963.4719378-1.2768341s1.0380149-.0719586 1.3080622.3768341l3.59 7.19c.1559692.3095182.1405453.6777279-.0407631.9731178-.1813083.29539-.5026437.4758333-.8492369.4768822z"/></g><path id="Shape" d="m48 47s-1 5-6 4c-1.3940234 2.4594503-4.2576233 3.6867074-7 3 0 0-2 4-7 2-.8592296 1.3569108-2.3989336 2.1267628-4 2-1.6010664.1267628-3.1407704-.6430892-4-2-5 2-7-2-7-2-2.7423767.6867074-5.60597658-.5405497-7-3-5 1-6-4-6-4 .37-.9.75-1.78 1.13-2.63 1.13568144 1.4903156 3.06601274 2.1364018 4.87 1.63 1.39402342 2.4594503 4.2576233 3.6867074 7 3 0 0 2 4 7 2 .8592296 1.3569108 2.3989336 2.1267628 4 2 1.6010664.1267628 3.1407704-.6430892 4-2 5 2 7-2 7-2 2.7423767.6867074 5.6059766-.5405497 7-3 1.8039873.5064018 3.7343186-.1396844 4.87-1.63.38.85.76 1.73 1.13 2.63z" fill="#fb7b76"/><path id="Rectangle-path" d="m18 0h12v6h-12z" fill="#df4d60"/><path id="Shape" d="m12 3s-4 2-6 9c2.73352327 1.7882172 6.2664767 1.7882172 9 0z" fill="#df4d60"/><path id="Shape" d="m36 3s4 2 6 9c-2.7335233 1.7882172-6.2664767 1.7882172-9 0z" fill="#df4d60"/><path id="Shape" d="m36 3s0 6-3 9c-1.11 1.11-2.1 3.75-1.5 7.07l-4.5 3.93h-6l-4.5-3.93c.2805578-1.3814608.2600932-2.8071609-.06-4.18-.2443126-1.0637943-.7378643-2.0543252-1.44-2.89-3-3-3-9-3-9 1.8739408-1.23442288 3.8880972-2.24150112 6-3 1.32 5.29 10.68 5.3 12 0 2.1119028.75849888 4.1260592 1.76557712 6 3z" fill="#ff5364"/><path id="Shape" d="m34 23.23c-.0279475.229921-.09562.4532403-.2.66-.48.94-2.37 3.11-9.8 3.11s-9.32-2.17-9.79-3.11c-.10438-.2067597-.1720525-.430079-.2-.66.22-.27.43-.51.62-.73h4.53c3.1918853.6700089 6.4881147.6700089 9.68 0h4.53c.19.22.4.5.63.73z" fill="#df4d60"/><path id="Shape" d="m19.74 14.77c-1.081988.252291-2.2025454.2930386-3.3.12-.193073-.8452313-.531431-1.6505234-1-2.38 1.2308856.5279921 2.6011606.6369114 3.9.31.3530898-.0913461.7279085.0167814.9780909.2821591s.3360469.6459139.224064.993011c-.111983.347097-.4040518.6057017-.7621549.6748299z" fill="#df4d60"/><path id="Shape" d="m28.69 12.82c-.3530898-.0913461-.7279085.0167814-.9780909.2821591s-.3360469.6459139-.224064.993011c.111983.347097.4040518.6057017.7621549.6748299 1.0847914.2551683 2.2085375.2993033 3.31.13.1904765-.8523051.5289355-1.6646066 1-2.4-1.2199765.5282798-2.5798218.6407218-3.87.32z" fill="#df4d60"/><path id="Shape" d="m24 25c-7.43 0-9.32-2.17-9.79-3.11-.4223792-.9345833-.0693624-2.0372026.8172739-2.5526888.8866364-.5154863 2.0195079-.2767555 2.6227261.5526888 1.86 1.52 10.83 1.53 12.7 0 .6032182-.8294443 1.7360897-1.0681751 2.6227261-.5526888.8866363.5154862 1.2396531 1.6181055.8172739 2.5526888-.47.94-2.36 3.11-9.79 3.11z" fill="#547580"/></g></svg>