<?xml version="1.0" encoding="iso-8859-1"?>
<!-- Generator: Adobe Illustrator 19.0.0, SVG Export Plug-In . SVG Version: 6.00 Build 0)  -->
<svg version="1.1" id="Capa_1" xmlns="http://www.w3.org/2000/svg" xmlns:xlink="http://www.w3.org/1999/xlink" x="0px" y="0px"
	 viewBox="0 0 512 512" style="enable-background:new 0 0 512 512;" xml:space="preserve">
<g>
	
		<rect x="141.356" y="425.986" transform="matrix(-0.7071 -0.7071 0.7071 -0.7071 44.9073 900.5598)" style="fill:#C83C50;" width="135.219" height="29.986"/>
	<path style="fill:#C83C50;" d="M458.214,287.354l-21.204-21.204l10.602-10.602c29.228-29.228,29.228-76.791,0-106.019
		l20.023-22.384c42.097,42.097,42.097,108.69,1.18,149.607L458.214,287.354z"/>
</g>
<path style="fill:#EDE9E8;" d="M367.038,264.455l-23.536-6.996l-103.687,91.388C182.354,399.524,113.168,449.54,45.951,486.223
	L0,511.816l25.596-45.951c20.356-37.321,49.254-78.43,74.062-112.991l-4.241-25.445l22.264,1.06
	c14.843-19.083,29.898-37.955,45.801-55.978l91.388-103.687l-1.272-23.271l20.993,0.584L380.821,25.486
	c3.604-4.029,7.421-7.421,11.662-10.388c22.264-17.175,54.069-19.719,78.665-6.574c7.21,3.816,13.358,8.269,18.872,13.783
	c11.239,11.239,18.66,25.868,21.204,41.983c3.394,23.324-4.452,47.284-21.204,64.036l-2.969,2.969L366.188,237.737L367.038,264.455z
	"/>
<path style="fill:#D2C5C2;" d="M367.038,264.455l-23.536-6.996l-103.687,91.388C182.354,399.524,113.168,449.54,45.951,486.223
	L0,511.816l490.02-489.51c11.239,11.239,18.66,25.868,21.204,41.983c3.393,23.324-4.452,47.284-21.204,64.036l-2.969,2.969
	L366.188,237.737L367.038,264.455z"/>
<rect x="370.821" y="81.525" transform="matrix(-0.7071 0.7071 -0.7071 -0.7071 778.0649 -129.2476)" style="fill:#53433F;" width="89.959" height="29.986"/>
<rect x="376.121" y="94.337" transform="matrix(-0.7071 0.7071 -0.7071 -0.7071 790.8707 -123.9225)" style="fill:#3E322E;" width="89.959" height="14.993"/>
<g>
	<path style="fill:#CF5668;" d="M263.563,42.714c-13.571,11.026-21.417,26.505-22.051,43.68
		c-0.849,16.965,5.512,33.502,17.386,45.377l15.692,14.367l-19.72,22.687l-17.175-15.85c-18.023-18.023-27.565-42.831-26.08-68.064
		c1.06-25.233,13.147-49.193,33.078-65.308c35.199-28.837,89.269-24.808,123.195,9.118l58.523,57.198l-21.204,21.204l-58.523-57.198
		C323.57,26.813,286.888,23.632,263.563,42.714z"/>
	<path style="fill:#CF5668;" d="M458.214,435.782c-29.261,29.261-76.758,29.261-106.019,0L118.952,202.539
		c-17.599-17.599-46.012-17.599-63.612,0c-17.598,17.598-17.599,46.012,0,63.612l62.339,62.339
		c-6.148,7.844-12.298,16.115-18.023,24.385l-65.52-65.52c-29.261-29.261-29.261-76.758,0-106.019s76.758-29.261,106.019,0
		l233.242,233.242c17.599,17.599,46.014,17.598,63.612,0c17.599-17.599,17.599-46.012,0-63.612l-93.509-93.509l22.687-19.72
		l92.025,92.025C487.476,359.024,487.476,406.52,458.214,435.782z"/>
</g>
<path style="fill:#C83C50;" d="M458.214,435.782c-29.261,29.261-76.758,29.261-106.019,0L214.369,297.957l21.204-21.204
	l137.825,137.825c17.599,17.599,46.014,17.598,63.612,0c17.599-17.599,17.599-46.012,0-63.612l-93.509-93.509l22.687-19.72
	l92.025,92.025C487.476,359.024,487.476,406.52,458.214,435.782z"/>
<g>
</g>
<g>
</g>
<g>
</g>
<g>
</g>
<g>
</g>
<g>
</g>
<g>
</g>
<g>
</g>
<g>
</g>
<g>
</g>
<g>
</g>
<g>
</g>
<g>
</g>
<g>
</g>
<g>
</g>
</svg>
