<svg height="512pt" viewBox="0 0 512 512" width="512pt" xmlns="http://www.w3.org/2000/svg"><path d="m416.644531 512h-321.289062v-320.410156l-95.355469 46.128906v-171.21875l131.101562-65.9375h249.414063l131.484375 65.925781v171.230469l-95.355469-46.128906zm0 0" fill="#fc657d"/><path d="m230.0625 213.644531c-7.867188 0-15.40625 6.917969-15.042969 15.042969.367188 8.148438 6.609375 15.039062 15.042969 15.039062 7.867188 0 15.402344-6.917968 15.039062-15.039062-.363281-8.148438-6.609374-15.042969-15.039062-15.042969zm0 0" fill="#fed843"/><path d="m380.519531.5625h-124.519531v511.4375h160.644531v-320.410156l95.355469 46.128906v-171.230469zm0 0" fill="#e33a53"/><path d="m95.355469 466.601562h321.289062v45.398438h-321.289062zm0 0" fill="#e33a53"/><path d="m256 466.601562h160.644531v45.398438h-160.644531zm0 0" fill="#ac2739"/><path d="m256 110.910156c-41.007812 0-74.371094-33.363281-74.371094-74.371094v-36.539062h148.742188v36.539062c0 41.007813-33.363282 74.371094-74.371094 74.371094zm0 0" fill="#e33a53"/><path d="m330.371094 36.539062v-36.539062h-74.371094v110.910156c41.007812 0 74.371094-33.363281 74.371094-74.371094zm0 0" fill="#ac2739"/><path d="m46 43.363281-46 23.136719v171.21875l46-22.25zm0 0" fill="#e33a53"/><path d="m466 43.363281 46 23.136719v171.21875l-46-22.25zm0 0" fill="#ac2739"/><path d="m397.242188 280.128906c-2.199219-2.140625-4.6875-4.5625-5.578126-6.101562-1-1.726563-1.878906-5.089844-2.726562-8.339844-2.082031-7.972656-4.929688-18.890625-14.894531-24.65625-9.734375-5.632812-20.039063-2.851562-28.320313-.621094-3.371094.910156-6.859375 1.851563-9.101562 1.851563-2.238282 0-5.726563-.941407-9.097656-1.851563-8.28125-2.230468-18.589844-5.011718-28.320313.621094-9.964844 5.765625-12.816406 16.683594-14.898437 24.65625-.847657 3.25-1.726563 6.613281-2.722657 8.339844-.890625 1.539062-3.382812 3.960937-5.578125 6.101562-5.988281 5.820313-14.183594 13.800782-14.183594 25.683594s8.195313 19.859375 14.183594 25.683594c2.195313 2.136718 4.6875 4.5625 5.578125 6.101562.996094 1.722656 1.875 5.085938 2.722657 8.339844 2.082031 7.96875 4.933593 18.890625 14.898437 24.65625 4.242187 2.453125 8.597656 3.308594 12.84375 3.308594 5.492187 0 10.804687-1.433594 15.476563-2.691406 3.371093-.910157 6.859374-1.851563 9.097656-1.851563 2.242187 0 5.726562.941406 9.101562 1.851563 8.28125 2.230468 18.585938 5.011718 28.320313-.621094 9.964843-5.765625 12.816406-16.683594 14.894531-24.652344.847656-3.253906 1.726562-6.617188 2.726562-8.34375.890626-1.539062 3.378907-3.960938 5.578126-6.097656 5.984374-5.824219 14.179687-13.800782 14.179687-25.683594.003906-11.882812-8.195313-19.859375-14.179687-25.683594zm0 0" fill="#fabe2c"/></svg>