<?xml version="1.0" encoding="utf-8"?>
<svg id="master-artboard" viewBox="0 0 1000 1000" version="1.1" xmlns="http://www.w3.org/2000/svg" x="0px" y="0px" style="enable-background:new 0 0 1400 980;" width="1000px" height="1000px"><rect id="ee-background" x="0" y="0" width="1000" height="1000" style="fill: white; fill-opacity: 0; pointer-events: none;"/><defs><style id="ee-google-fonts">@import url(https://fonts.googleapis.com/css?family=Fjalla+One:400|Roboto:100,100italic,300,300italic,400,400italic,500,500italic,700,700italic,900,900italic);</style></defs>











































<g transform="matrix(1, 0, 0, 1, -233.43637084960938, 6.309104919433594)">
		<path class="st13" d="M448.4,599.9" style="fill: rgb(223, 243, 251);"/>
	</g>





















































<g transform="matrix(1.4209245443344114, 0, 0, 1.4209245443344114, 170.3454895019531, 223.34552001953122)"><path style="fill:#DBDBDB;" d="M72,0h320c17.673,0,32,14.327,32,32v432l0,0H40l0,0V32C40,14.327,54.327,0,72,0z"/><path style="fill:#B9B9B9;" d="M72,0h320c17.673,0,32,14.327,32,32v64l0,0H40l0,0V32C40,14.327,54.327,0,72,0z"/><path style="fill:#DBDBDB;" d="M168,0h224c17.673,0,32,14.327,32,32v64l0,0H168l0,0V0L168,0z"/><path style="fill:#3B869E;" d="M104,24L104,24c13.255,0,24,10.745,24,24l0,0c0,13.255-10.745,24-24,24l0,0&#10;&#9;c-13.255,0-24-10.745-24-24l0,0C80,34.745,90.745,24,104,24z"/><path style="fill:#EBEBEB;" d="M40,96h384v368H40V96z"/><path d="M 360 264 A 128 128 0 0 1 232 392 A 128 128 0 0 1 104 264 A 128 128 0 0 1 232 136 A 128 128 0 0 1 360 264 Z" style="fill:#3B869E;"/><path d="M 320 264 A 88 88 0 0 1 232 352 A 88 88 0 0 1 144 264 A 88 88 0 0 1 232 176 A 88 88 0 0 1 320 264 Z" style="fill:#8ACED8;"/><g>
	<path style="fill:#6FBBC6;" d="M294.4,256c-20.8,0-20.8,16-41.6,16s-20.8-16-41.6-16s-20.8,16-41.56,16&#10;&#9;&#9;c-13.384,0-18.168-6.616-25.416-11.344c-0.04,1.12-0.168,2.216-0.168,3.344c-0.123,48.57,39.151,88.043,87.721,88.166&#10;&#9;&#9;c47.438,0.12,86.423-37.406,88.111-84.814C312.568,262.632,307.784,256,294.4,256z"/>
	<path style="fill:#6FBBC6;" d="M384,64h-32V32h31.752L384,64z"/>
	<path style="fill:#6FBBC6;" d="M312,64h-32V32h31.752L312,64z"/>
	<path style="fill:#6FBBC6;" d="M240,64h-32V32h31.752L240,64z"/>
</g><path style="fill:#B9B9B9;" d="M40,432h384v32H40V432z"/><g>
</g><g>
</g><g>
</g><g>
</g><g>
</g><g>
</g><g>
</g><g>
</g><g>
</g><g>
</g><g>
</g><g>
</g><g>
</g><g>
</g><g>
</g></g><g transform="matrix(0.3573685884475708, 0, 0, 0.3573685884475708, 763.01806640625, 32.39093780517578)"><g>
	<g>
		<path d="M256,0C114.833,0,0,114.844,0,256s114.833,256,256,256s256-114.844,256-256S397.167,0,256,0z M256,490.667&#10;&#9;&#9;&#9;C126.604,490.667,21.333,385.396,21.333,256S126.604,21.333,256,21.333S490.667,126.604,490.667,256S385.396,490.667,256,490.667z&#10;&#9;&#9;&#9;" style="stroke: rgb(0, 0, 0); stroke-width: 18;"/>
	</g>
</g><g>
</g><g>
</g><g>
</g><g>
</g><g>
</g><g>
</g><g>
</g><g>
</g><g>
</g><g>
</g><g>
</g><g>
</g><g>
</g><g>
</g><g>
</g></g></svg>