<?xml version="1.0" encoding="iso-8859-1"?>
<!-- Generator: Adobe Illustrator 19.0.0, SVG Export Plug-In . SVG Version: 6.00 Build 0)  -->
<svg version="1.1" id="Capa_1" xmlns="http://www.w3.org/2000/svg" xmlns:xlink="http://www.w3.org/1999/xlink" x="0px" y="0px"
	 viewBox="0 0 464 464" style="enable-background:new 0 0 464 464;" xml:space="preserve">
<path style="fill:#DBDBDB;" d="M72,0h320c17.673,0,32,14.327,32,32v432l0,0H40l0,0V32C40,14.327,54.327,0,72,0z"/>
<path style="fill:#B9B9B9;" d="M72,0h320c17.673,0,32,14.327,32,32v64l0,0H40l0,0V32C40,14.327,54.327,0,72,0z"/>
<path style="fill:#DBDBDB;" d="M168,0h224c17.673,0,32,14.327,32,32v64l0,0H168l0,0V0L168,0z"/>
<path style="fill:#3B869E;" d="M104,24L104,24c13.255,0,24,10.745,24,24l0,0c0,13.255-10.745,24-24,24l0,0
	c-13.255,0-24-10.745-24-24l0,0C80,34.745,90.745,24,104,24z"/>
<path style="fill:#EBEBEB;" d="M40,96h384v368H40V96z"/>
<circle style="fill:#3B869E;" cx="232" cy="264" r="128"/>
<circle style="fill:#8ACED8;" cx="232" cy="264" r="88"/>
<g>
	<path style="fill:#6FBBC6;" d="M294.4,256c-20.8,0-20.8,16-41.6,16s-20.8-16-41.6-16s-20.8,16-41.56,16
		c-13.384,0-18.168-6.616-25.416-11.344c-0.04,1.12-0.168,2.216-0.168,3.344c-0.123,48.57,39.151,88.043,87.721,88.166
		c47.438,0.12,86.423-37.406,88.111-84.814C312.568,262.632,307.784,256,294.4,256z"/>
	<path style="fill:#6FBBC6;" d="M384,64h-32V32h31.752L384,64z"/>
	<path style="fill:#6FBBC6;" d="M312,64h-32V32h31.752L312,64z"/>
	<path style="fill:#6FBBC6;" d="M240,64h-32V32h31.752L240,64z"/>
</g>
<path style="fill:#B9B9B9;" d="M40,432h384v32H40V432z"/>
<g>
</g>
<g>
</g>
<g>
</g>
<g>
</g>
<g>
</g>
<g>
</g>
<g>
</g>
<g>
</g>
<g>
</g>
<g>
</g>
<g>
</g>
<g>
</g>
<g>
</g>
<g>
</g>
<g>
</g>
</svg>
