<svg id="Layer_1" enable-background="new 0 0 512 512" height="512" viewBox="0 0 512 512" width="512" xmlns="http://www.w3.org/2000/svg"><g><g><path d="m459.004 105.516h-101.226c-16.209 0-29.396-13.187-29.396-29.396s13.187-29.396 29.396-29.396h101.2c4.143 0 7.5-3.357 7.5-7.5s-3.357-7.5-7.5-7.5h-101.2c-24.479 0-44.396 19.916-44.396 44.396s19.916 44.396 44.396 44.396h101.226c20.951 0 37.996 17.045 37.996 37.996 0 16.98-13.814 30.795-30.795 30.795-4.143 0-7.5 3.357-7.5 7.5s3.357 7.5 7.5 7.5c25.251 0 45.795-20.544 45.795-45.795 0-29.221-23.774-52.996-52.996-52.996z" fill="#a8b3ba"/><path d="m397.24 239.725v35.67h-47.53v-35.67c0-2.15 1.74-3.89 3.89-3.89h39.75c2.15 0 3.89 1.74 3.89 3.89z" fill="#a8b3ba"/><path d="m397.24 239.725v35.67h-19.76v-35.67c0-2.15-1.75-3.89-3.9-3.89h19.77c2.15 0 3.89 1.74 3.89 3.89z" fill="#879299"/><path d="m450.21 374.705c-1.41 1.95-3.67 3.11-6.08 3.11h-385c-3.24 0-6.11-2.07-7.12-5.15l-10-30.23c-.76-2.28-.37-4.79 1.04-6.74s3.67-3.11 6.08-3.11h385c3.23 0 6.1 2.07 7.12 5.14l10 30.23c.75 2.29.37 4.8-1.04 6.75z" fill="#a8b3ba"/><path d="m450.21 374.705c-1.41 1.95-3.67 3.11-6.08 3.11h-30c2.41 0 4.67-1.16 6.08-3.11s1.79-4.46 1.04-6.75l-10-30.23c-1.02-3.07-3.89-5.14-7.12-5.14h30c3.23 0 6.1 2.07 7.12 5.14l10 30.23c.75 2.29.37 4.8-1.04 6.75z" fill="#879299"/><path d="m511.99 387.635v.06c0 8.27-6.71 14.97-14.98 14.97h-482.04c-8.27 0-14.97-6.7-14.97-14.97v-.06c0-8.27 6.7-14.97 14.97-14.97h482.04c8.27 0 14.98 6.7 14.98 14.97z" fill="#555760"/><path d="m511.99 387.635v.06c0 8.27-6.71 14.97-14.98 14.97h-29.99c8.27 0 14.97-6.7 14.97-14.97v-.06c0-8.27-6.7-14.97-14.97-14.97h29.99c8.27 0 14.98 6.7 14.98 14.97z" fill="#36383f"/><path d="m74.84 372.665v100.11c0 4.14 3.36 7.5 7.5 7.5h347.32c4.14 0 7.5-3.36 7.5-7.5v-100.11z" fill="#dae6ef"/><path d="m437.16 372.665v100.11c0 4.14-3.36 7.5-7.5 7.5h-30c4.14 0 7.5-3.36 7.5-7.5v-100.11z" fill="#c5d3dd"/><path d="m494.94 288.165-21.41-92.98c-6.25-29.02-31.33-49.59-61.01-50.04h-143.72c-60.2 0-115.61 20.19-160.22 58.4-7.46 6.39-14.53 13.22-21.19 20.45-10.47 11.35-19.92 23.68-28.21 36.77-12.64 19.94-22.59 41.63-29.4 64.32-1.32 4.38-2.51 8.79-3.59 13.23-.54 2.24-.03 4.6 1.39 6.41 1.43 1.8 3.6 2.86 5.9 2.86h421.3c4.14 0 7.5-3.36 7.5-7.5 0-23.64 8.53-36.93 27.66-43.1 3.7-1.2 5.88-5.03 5-8.82zm-191.74-101.31h98.44c11.75 0 21.98 8.03 24.78 19.44l13.24 54.1h-110.95c-14.09 0-25.51-11.42-25.51-25.51z" fill="#52deff"/><g fill="#55baff"><path d="m489.94 296.985c-19.13 6.17-27.66 19.46-27.66 43.1 0 4.14-3.36 7.5-7.5 7.5h-421.3c-2.3 0-4.47-1.06-5.9-2.86-1.42-1.81-1.93-4.17-1.39-6.41 1.08-4.44 2.27-8.85 3.59-13.23h411.09c3.11-20.27 12.94-35.01 29.34-44.04l-18.68-81.12c-6.5-33.02-30.18-54.49-49.32-54.78h10.31c29.68.45 54.76 21.02 61.01 50.04l21.41 92.98c.88 3.79-1.3 7.62-5 8.82z"/><path d="m165.52 227.595v12.25c0 11.55-9.37 20.92-20.92 20.92h-85.42c8.29-13.09 17.74-25.42 28.21-36.77h74.53c1.99 0 3.6 1.61 3.6 3.6z"/></g></g><g fill="#dae6ef"><path d="m124.85 90.045c0-4.143-3.357-7.5-7.5-7.5s-7.5 3.357-7.5 7.5c0 3.333-1.095 4.655-3.275 7.288-2.838 3.426-6.725 8.117-6.725 16.856s3.887 13.431 6.725 16.856c2.181 2.633 3.275 3.955 3.275 7.288s-1.095 4.654-3.275 7.287c-2.838 3.425-6.725 8.116-6.725 16.854 0 4.143 3.357 7.5 7.5 7.5s7.5-3.357 7.5-7.5c0-3.332 1.095-4.653 3.275-7.285 2.838-3.426 6.725-8.117 6.725-16.856s-3.887-13.431-6.725-16.856c-2.181-2.633-3.275-3.955-3.275-7.288s1.095-4.655 3.275-7.288c2.838-3.426 6.725-8.117 6.725-16.856z"/><path d="m167.803 84.189c0-3.333 1.095-4.655 3.275-7.288 2.838-3.426 6.725-8.117 6.725-16.856 0-4.143-3.357-7.5-7.5-7.5s-7.5 3.357-7.5 7.5c0 3.333-1.095 4.655-3.275 7.288-2.838 3.426-6.725 8.117-6.725 16.856s3.887 13.431 6.725 16.856c2.181 2.633 3.275 3.955 3.275 7.288s-1.095 4.654-3.275 7.287c-2.838 3.425-6.725 8.116-6.725 16.854 0 4.143 3.357 7.5 7.5 7.5s7.5-3.357 7.5-7.5c0-3.332 1.095-4.653 3.275-7.285 2.838-3.426 6.725-8.117 6.725-16.856s-3.887-13.431-6.725-16.856c-2.18-2.632-3.275-3.955-3.275-7.288z"/><path d="m71.897 129.669c0-4.143-3.357-7.5-7.5-7.5s-7.5 3.357-7.5 7.5c0 3.333-1.095 4.655-3.275 7.288-2.838 3.426-6.725 8.117-6.725 16.856s3.887 13.431 6.725 16.856c2.181 2.633 3.275 3.955 3.275 7.288s-1.095 4.654-3.275 7.287c-2.838 3.425-6.725 8.116-6.725 16.854 0 4.143 3.357 7.5 7.5 7.5s7.5-3.357 7.5-7.5c0-3.332 1.095-4.653 3.275-7.285 2.838-3.426 6.725-8.117 6.725-16.856s-3.887-13.431-6.725-16.856c-2.181-2.633-3.275-3.955-3.275-7.288s1.095-4.655 3.275-7.288c2.838-3.426 6.725-8.117 6.725-16.856z"/></g></g></svg>