<?xml version="1.0" encoding="iso-8859-1"?>
<!-- Generator: Adobe Illustrator 19.0.0, SVG Export Plug-In . SVG Version: 6.00 Build 0)  -->
<svg version="1.1" id="Capa_1" xmlns="http://www.w3.org/2000/svg" xmlns:xlink="http://www.w3.org/1999/xlink" x="0px" y="0px"
	 viewBox="0 0 512 512" style="enable-background:new 0 0 512 512;" xml:space="preserve">
<rect x="38" y="69.914" style="fill:#08375E;" width="436" height="15"/>
<path style="fill:#EF5A50;" d="M206.244,225.238c0,1.7-1.39,3.09-3.09,3.09H102.148c-1.699,0-3.09-1.391-3.09-3.09V68.832
	c0-1.7,1.391-3.091,3.09-3.091h101.006c1.7,0,3.09,1.391,3.09,3.091L206.244,225.238L206.244,225.238z"/>
<path style="opacity:0.1;fill:#231F20;enable-background:new    ;" d="M121.046,225.238V68.832c0-1.7,1.391-3.091,3.091-3.091
	h-21.988c-1.699,0-3.09,1.391-3.09,3.091v156.405c0,1.7,1.391,3.09,3.09,3.09h21.988
	C122.437,228.328,121.046,226.937,121.046,225.238z"/>
<path style="fill:#86D5B5;" d="M401.35,225.238c0,1.7-1.392,3.09-3.091,3.09h-140.75c-1.7,0-3.091-1.391-3.091-3.09V68.832
	c0-1.7,1.391-3.091,3.091-3.091h140.75c1.699,0,3.091,1.391,3.091,3.091V225.238z"/>
<path style="opacity:0.1;fill:#231F20;enable-background:new    ;" d="M276.989,225.238V68.832c0-1.7,1.39-3.091,3.091-3.091
	h-22.571c-1.7,0-3.091,1.391-3.091,3.091v156.405c0,1.7,1.391,3.09,3.091,3.09h22.571
	C278.379,228.328,276.989,226.937,276.989,225.238z"/>
<g>
	<rect x="38" y="110.86" style="fill:#08375E;" width="436" height="15"/>
	<rect x="38" y="155.42" style="fill:#08375E;" width="436" height="15"/>
</g>
<path style="fill:#FF9F3D;" d="M259.566,186.572c0,1.699-1.391,3.09-3.091,3.09H91.641c-1.7,0-3.09-1.391-3.09-3.09v-31.154
	c0-1.7,1.39-3.09,3.09-3.09h164.835c1.7,0,3.091,1.391,3.091,3.09v31.154H259.566z"/>
<path style="opacity:0.1;fill:#231F20;enable-background:new    ;" d="M105.588,186.572v-31.154c0-1.7,1.39-3.09,3.09-3.09H91.641
	c-1.7,0-3.09,1.391-3.09,3.09v31.154c0,1.699,1.39,3.09,3.09,3.09h17.037C106.978,189.663,105.588,188.272,105.588,186.572z"/>
<path style="fill:#FFBB4A;" d="M223.436,278.563c0,1.7-1.391,3.09-3.091,3.09h-92.574c-1.7,0-3.091-1.39-3.091-3.09V155.418
	c0-1.7,1.391-3.09,3.091-3.09h92.574c1.7,0,3.091,1.391,3.091,3.09V278.563z"/>
<path style="opacity:0.1;fill:#231F20;enable-background:new    ;" d="M141.65,278.563V155.418c0-1.7,1.39-3.09,3.09-3.09h-16.97
	c-1.7,0-3.091,1.391-3.091,3.09v123.145c0,1.7,1.391,3.09,3.091,3.09h16.97C143.04,281.654,141.65,280.263,141.65,278.563z"/>
<path style="fill:#FF9F3D;" d="M148.742,152.328c2.493,11.697,12.877,20.474,25.316,20.474s22.821-8.776,25.315-20.474H148.742z"/>
<path style="fill:#34A1D7;" d="M291.561,152.527c-1.7,0-3.091,1.391-3.091,3.09v104.62c0,1.699,1.391,3.09,3.091,3.09h49.903
	c1.7,0,3.091-1.391,3.091-3.09V204.5c0-1.7,1.39-3.09,3.091-3.09h18.613c1.7,0,3.09,1.391,3.09,3.09v55.738
	c0,1.699,1.391,3.09,3.091,3.09h49.904c1.699,0,3.091-1.391,3.091-3.09v-104.62c0-1.7-1.392-3.09-3.091-3.09H291.561V152.527z"/>
<g style="opacity:0.1;">
	<path style="fill:#231F20;" d="M305.449,260.238v-104.62c0-1.7,1.39-3.09,3.09-3.09h-16.978c-1.7,0-3.091,1.391-3.091,3.09v104.62
		c0,1.699,1.391,3.09,3.091,3.09h16.978C306.839,263.328,305.449,261.937,305.449,260.238z"/>
</g>
<path style="fill:#ABCCD3;" d="M41.25,428.933c0,2.833-2.318,5.151-5.151,5.151H19.905c-2.833,0-5.15-2.318-5.15-5.151V63.479
	c0-2.833,2.317-5.151,5.15-5.151h16.193c2.833,0,5.151,2.318,5.151,5.151L41.25,428.933L41.25,428.933z"/>
<path style="opacity:0.1;fill:#231F20;enable-background:new    ;" d="M27.3,428.933V63.479c0-2.833,2.317-5.151,5.151-5.151H19.905
	c-2.833,0-5.15,2.318-5.15,5.151v365.454c0,2.833,2.317,5.151,5.15,5.151h12.546C29.617,434.084,27.3,431.766,27.3,428.933z"/>
<path style="fill:#34A1D7;" d="M56.004,448.521c0,2.833-2.317,5.151-5.15,5.151H5.15c-2.832,0-5.15-2.318-5.15-5.151v-20.812
	c0-2.833,2.318-5.151,5.15-5.151h45.703c2.833,0,5.15,2.318,5.15,5.151L56.004,448.521L56.004,448.521z"/>
<path style="opacity:0.1;fill:#231F20;enable-background:new    ;" d="M16.624,448.521v-20.812c0-2.833,2.317-5.151,5.15-5.151H5.15
	c-2.832,0-5.15,2.318-5.15,5.151v20.812c0,2.833,2.318,5.151,5.15,5.151h16.624C18.941,453.672,16.624,451.354,16.624,448.521z"/>
<path style="fill:#ABCCD3;" d="M497.244,428.933c0,2.833-2.317,5.151-5.15,5.151H475.9c-2.833,0-5.151-2.318-5.151-5.151V63.479
	c0-2.833,2.318-5.151,5.151-5.151h16.194c2.833,0,5.15,2.318,5.15,5.151V428.933z"/>
<path style="fill:#34A1D7;" d="M512,448.521c0,2.833-2.318,5.151-5.15,5.151h-45.703c-2.834,0-5.151-2.318-5.151-5.151v-20.812
	c0-2.833,2.317-5.151,5.151-5.151h45.703c2.832,0,5.15,2.318,5.15,5.151V448.521z"/>
<path style="fill:#86D5B5;" d="M128.561,348.521c-6.977,0-12.653-5.675-12.653-12.651c0-2.908,1.007-5.736,2.839-7.984l8.128-14.076
	c0.348-0.603,0.991-0.973,1.687-0.973l0,0c0.694,0,1.338,0.372,1.685,0.974l8.126,14.076c1.832,2.252,2.839,5.08,2.839,7.983
	C141.21,342.846,135.535,348.521,128.561,348.521z"/>
<path style="fill:#B1E8FF;" d="M202.037,374.648c-6.977,0-12.652-5.675-12.652-12.651c0-2.908,1.007-5.736,2.839-7.983l8.128-14.078
	c0.347-0.602,0.989-0.973,1.686-0.973l0,0c0.694,0,1.338,0.371,1.686,0.974l8.125,14.077c1.832,2.252,2.84,5.08,2.84,7.983
	C214.688,368.973,209.012,374.648,202.037,374.648z"/>
<path style="fill:#86D5B5;" d="M295.964,333.494c-6.977,0-12.653-5.675-12.653-12.651c0-2.909,1.008-5.736,2.84-7.984l8.129-14.077
	c0.346-0.603,0.989-0.973,1.685-0.973l0,0c0.695,0,1.338,0.371,1.685,0.973l8.126,14.078c1.833,2.251,2.841,5.08,2.841,7.983
	C308.615,327.819,302.94,333.494,295.964,333.494z"/>
<path style="fill:#B1E8FF;" d="M391.119,359.988c-6.978,0-12.653-5.675-12.653-12.65c0-2.909,1.007-5.737,2.839-7.984l8.129-14.077
	c0.346-0.602,0.99-0.972,1.686-0.972l0,0c0.695,0,1.338,0.37,1.685,0.973l8.126,14.076c1.832,2.253,2.839,5.081,2.839,7.984
	C403.769,354.314,398.094,359.988,391.119,359.988z"/>
<g>
	<path style="fill:#86D5B5;" d="M257.03,453.672H114.865c-4.142,0-7.5-3.358-7.5-7.5s3.358-7.5,7.5-7.5H257.03
		c4.143,0,7.5,3.358,7.5,7.5S261.173,453.672,257.03,453.672z"/>
	<path style="fill:#86D5B5;" d="M389.924,453.672h-89.626c-4.143,0-7.5-3.358-7.5-7.5s3.357-7.5,7.5-7.5h89.626
		c4.143,0,7.5,3.358,7.5,7.5S394.066,453.672,389.924,453.672z"/>
</g>
<g>
</g>
<g>
</g>
<g>
</g>
<g>
</g>
<g>
</g>
<g>
</g>
<g>
</g>
<g>
</g>
<g>
</g>
<g>
</g>
<g>
</g>
<g>
</g>
<g>
</g>
<g>
</g>
<g>
</g>
</svg>
