<svg height="512pt" viewBox="-9 0 512 512" width="512pt" xmlns="http://www.w3.org/2000/svg"><path d="m24.339844 414.636719c-13.441406 0-24.339844 10.898437-24.339844 24.34375 0 13.441406 10.898438 24.339843 24.339844 24.339843-13.441406 0-24.339844 10.894532-24.339844 24.339844 0 13.441406 10.898438 24.339844 24.339844 24.339844h241.5625v-97.363281zm0 0" fill="#ff938a"/><path d="m135.949219 512h129.953125v-97.363281h-142.253906c.726562 33.136719 4.078124 67.527343 12.300781 97.363281zm0 0" fill="#fb695b"/><path d="m234.039062 471.046875h-169.03125c-4.265624 0-7.726562-3.460937-7.726562-7.726563 0-4.269531 3.460938-7.726562 7.726562-7.726562h169.03125c4.269532 0 7.726563 3.457031 7.726563 7.726562 0 4.265626-3.457031 7.726563-7.726563 7.726563zm0 0" fill="#f54432"/><path d="m241.5625 317.277344c13.441406 0 24.339844 10.898437 24.339844 24.339844 0 13.445312-10.898438 24.339843-24.339844 24.339843 13.441406 0 24.339844 10.898438 24.339844 24.339844 0 13.445313-10.898438 24.339844-24.339844 24.339844h-192.882812c-26.886719 0-48.679688-21.792969-48.679688-48.679688 0-26.882812 21.792969-48.679687 48.679688-48.679687zm0 0" fill="#ffd4a3"/><path d="m265.902344 390.296875c0-13.441406-10.894532-24.339844-24.339844-24.339844 13.445312 0 24.339844-10.894531 24.339844-24.339843 0-13.441407-10.894532-24.339844-24.339844-24.339844h-113.753906c-2.5625 25.6875-4.960938 60.757812-4.160156 97.363281h117.914062c13.445312-.003906 24.339844-10.898437 24.339844-24.34375zm0 0" fill="#ffbe73"/><path d="m234.039062 373.683594h-169.03125c-4.265624 0-7.726562-3.457032-7.726562-7.726563 0-4.265625 3.460938-7.726562 7.726562-7.726562h169.03125c4.269532 0 7.726563 3.460937 7.726563 7.726562 0 4.269531-3.457031 7.726563-7.726563 7.726563zm0 0" fill="#ffa93f"/><path d="m400.417969 108.59375h-121.925781s-102.152344 84.335938-93.425782 236.238281c2.777344 48.359375 4.78125 82.875 6.222656 107.453125 1.964844 33.535156 29.734376 59.714844 63.328126 59.714844h169.675781c33.59375 0 61.363281-26.179688 63.328125-59.714844 1.441406-24.578125 3.445312-59.089844 6.222656-107.453125 8.726562-151.902343-93.425781-236.238281-93.425781-236.238281zm6.476562 210.601562c-22.472656-15.324218-36.585937-34.886718-44.605469-48.980468-5.933593-10.433594-5.503906-23.320313 1.035157-33.386719l21.777343-33.554687c7.890626-12.152344 25.964844-11.128907 32.5 1.804687 18.484376 36.582031 23.1875 71.285156 23.566407 95.625.28125 17.789063-19.574219 28.515625-34.273438 18.492187zm0 0" fill="#c2eafb"/><path d="m316.972656 179.207031c59.617188.929688 96.566406-20.46875 115.347656-35.863281-17.515624-22.871094-31.902343-34.75-31.902343-34.75h-121.925781s-35.351563 29.195312-62.6875 84.148438c22.800781-7.332032 56.417968-14.234376 101.167968-13.535157zm0 0" fill="#91d4f2"/><path d="m401.507812 97.707031h-121.925781v-70.171875c0-15.207031 12.328125-27.535156 27.535157-27.535156h66.855468c15.207032 0 27.535156 12.328125 27.535156 27.535156zm0 0" fill="#fb695b"/><path d="m403.875 119.480469h-126.660156c-12.027344 0-21.773438-9.75-21.773438-21.773438 0-12.027343 9.746094-21.777343 21.773438-21.777343h126.660156c12.027344 0 21.777344 9.75 21.777344 21.777343 0 12.023438-9.75 21.773438-21.777344 21.773438zm0 0" fill="#ff938a"/><path d="m281.792969 219.535156c-19.226563 0-35.738281 13.570313-39.558594 32.414063-4.109375 20.253906-8.195313 48.929687-8.195313 82.902343 0 29.953126 1.589844 56.097657 3.371094 76.027344 2.074219 23.179688 21.550782 40.917969 44.824219 40.917969h85.527344c24.859375 0 45.007812-20.148437 45.007812-45.007813v-24.449218c0-11.011719-6.074219-21.089844-15.757812-26.332032-24.832031-13.4375-69.320313-45.410156-74.957031-98.785156-3.976563-37.6875-40.261719-37.6875-40.261719-37.6875zm0 0" fill="#2eddda"/><g fill="#454545"><path d="m372.242188 406.410156c-4.265626 0-7.726563-3.460937-7.726563-7.726562v-12.828125c0-4.265625 3.460937-7.726563 7.726563-7.726563 4.269531 0 7.726562 3.460938 7.726562 7.726563v12.828125c0 4.265625-3.457031 7.726562-7.726562 7.726562zm0 0"/><path d="m274.566406 406.410156c-4.265625 0-7.726562-3.460937-7.726562-7.726562v-12.828125c0-4.265625 3.460937-7.726563 7.726562-7.726563 4.269532 0 7.726563 3.460938 7.726563 7.726563v12.828125c0 4.265625-3.457031 7.726562-7.726563 7.726562zm0 0"/><path d="m328.683594 390.964844c-1.730469 2.539062-4.253906 2.847656-5.277344 2.847656s-3.589844-.277344-5.277344-2.847656c-2.34375-3.566406-7.132812-4.558594-10.699218-2.214844-3.566407 2.339844-4.558594 7.132812-2.21875 10.699219 4.039062 6.144531 10.839843 9.816406 18.195312 9.816406s14.152344-3.671875 18.191406-9.816406c2.34375-3.566407 1.351563-8.359375-2.214844-10.699219-1.308593-.859375-7.089843-3.085938-10.699218 2.214844zm0 0"/></g></svg>